<svg xmlns="http://www.w3.org/2000/svg" width="1200" height="300" viewBox="0 0 1200 300" role="img" aria-labelledby="title desc">
  <title id="title">Jorge Suárez</title>
  <desc id="desc">Construyendo juegos, escalando estudios y documentando el viaje desde Guadalajara, México.</desc>
  <defs>
    <linearGradient id="bg" x1="0" y1="0" x2="1" y2="1"><stop stop-color="#0a0a0a"/><stop offset=".68" stop-color="#161616"/><stop offset="1" stop-color="#2d160d"/></linearGradient>
    <linearGradient id="amber" x1="0" y1="0" x2="1" y2="0"><stop stop-color="#ff6b35"/><stop offset="1" stop-color="#ffa500"/></linearGradient>
    <pattern id="grid" width="32" height="32" patternUnits="userSpaceOnUse"><path d="M32 0H0V32" fill="none" stroke="#ff6b35" stroke-opacity=".08"/></pattern>
  </defs>
  <rect width="1200" height="300" rx="24" fill="url(#bg)"/><rect width="1200" height="300" rx="24" fill="url(#grid)"/><rect x="2" y="2" width="1196" height="296" rx="22" fill="none" stroke="#ff6b35" stroke-width="3"/>
  <path d="M0 80L230 0H0Z" fill="#ff6b35" opacity=".09"/><path d="M1200 190L940 300H1200Z" fill="#ffa500" opacity=".08"/>
  <g transform="translate(55 62)"><rect width="170" height="170" rx="36" fill="#111" stroke="url(#amber)" stroke-width="4"/><text x="85" y="112" text-anchor="middle" fill="#fff" font-family="Arial, sans-serif" font-size="68" font-weight="800">JS</text><rect x="34" y="132" width="102" height="5" fill="url(#amber)"/></g>
  <g font-family="-apple-system, BlinkMacSystemFont, Segoe UI, Helvetica, Arial, sans-serif">
    <text x="280" y="64" fill="#ff6b35" font-size="14" font-weight="700" letter-spacing="3">JORGESUAREZ.COM.MX // PLAYER ONE</text>
    <text x="280" y="128" fill="#fff" font-size="54" font-weight="800">JORGE SUÁREZ</text>
    <text x="280" y="174" fill="#d4d4d4" font-size="22" font-weight="600">CONSTRUYENDO JUEGOS · ESCALANDO ESTUDIOS</text>
    <text x="280" y="208" fill="#d4d4d4" font-size="22" font-weight="600">DOCUMENTANDO EL VIAJE</text>
    <text x="280" y="256" fill="#a0a0a0" font-size="14" letter-spacing="2">GAMING  ◆  COMUNIDAD  ◆  EMPRENDIMIENTO  ◆  GUADALAJARA</text>
  </g>
  <g fill="#ffa500"><rect x="1128" y="32" width="10" height="10"/><rect x="1146" y="32" width="10" height="10"/><rect x="1164" y="32" width="10" height="10"/></g>
</svg>
